<?xml version="1.0" encoding="utf-8"?>
<!-- Generator: Adobe Illustrator 25.0.0, SVG Export Plug-In . SVG Version: 6.00 Build 0)  -->
<svg version="1.1" xmlns="http://www.w3.org/2000/svg" xmlns:xlink="http://www.w3.org/1999/xlink" x="0px" y="0px"
	 viewBox="0 0 1000 1000" style="enable-background:new 0 0 1000 1000;" xml:space="preserve">
<style type="text/css">
	.st0{fill:#00000C;}
	.st1{display:none;}
	.st2{display:inline;fill-rule:evenodd;clip-rule:evenodd;fill:#2160AD;}
	.st3{fill-rule:evenodd;clip-rule:evenodd;fill:#2160AD;}
	.st4{fill-rule:evenodd;clip-rule:evenodd;fill:#EF3D23;}
	.st5{opacity:0.2;fill:#F8D422;enable-background:new    ;}
	.st6{fill-rule:evenodd;clip-rule:evenodd;fill:#2261AD;}
	.st7{fill-rule:evenodd;clip-rule:evenodd;fill:#27C4F4;enable-background:new    ;}
</style>
<g id="letters">
	<path class="st0" d="M137.1,721.5l0.5,8.2c-6.5,0.6-17,0.9-31.5,0.9c-4.5,0-8.1-1.2-10.8-3.5c-2.6-2.4-4-5.6-4-9.7v-47.5
		c0.1-4,1.4-7.2,4-9.6c2.6-2.4,6.2-3.6,10.8-3.6c14.6,0,25.1,0.3,31.5,0.9l-0.5,8.3h-29.2c-2.1,0-3.7,0.5-4.6,1.6
		c-0.9,1-1.3,2.7-1.3,5.2v14.7h31v8.6h-31v18.7c0,2.5,0.4,4.3,1.3,5.3c0.9,1,2.4,1.5,4.6,1.5H137.1z"/>
	<path class="st0" d="M161.3,655.8v59.5c-0.1,2.2,0.5,3.9,1.6,5c1.1,1.1,2.8,1.6,5.1,1.6h4.8l1.2,8c-2.1,0.9-5.4,1.4-9.9,1.4
		c-4,0-7.2-1.2-9.6-3.5c-2.3-2.4-3.5-5.8-3.5-10.1v-61.9H161.3z"/>
	<path class="st0" d="M214.7,709.3h-23.3c0.5,5.4,1.9,9,4.2,10.9c2.3,1.8,6.1,2.8,11.4,2.8c4.6,0,10.7-0.4,18.2-1.3l1,6.8
		c-4.7,2.1-11.5,3.1-20.6,3.1c-9.1,0-15.5-2.1-19.4-6.2c-3.8-4.1-5.6-11.2-5.6-21.2c0-10.1,1.8-17.1,5.5-21.2
		c3.8-4,9.9-6.1,18.5-6.1c8,0,13.7,1.5,17.4,4.4c3.6,2.9,5.4,7.3,5.4,13.1C227.4,704.4,223.1,709.3,214.7,709.3z M191.3,701.3h20.7
		c3.4,0,5.1-2.3,5.1-6.9c-0.1-3.2-1-5.4-2.8-6.7c-1.7-1.3-4.8-2-9.2-2c-5.1,0-8.7,1.1-10.6,3.3C192.5,691.1,191.4,695.2,191.3,701.3
		z"/>
	<path class="st0" d="M279.9,721.8l1,6.9c-5.3,1.9-11.3,2.9-18.1,2.9c-9.1,0-15.5-2-19.3-6.1c-3.7-4.1-5.5-11.2-5.5-21.2
		s1.8-17.1,5.5-21.2c3.8-4.1,10.2-6.2,19.3-6.2c7,0,12.7,0.9,17.3,2.7l-1.4,6.6c-5.3-0.4-10-0.5-14.1-0.5c-6,0-10.1,1.3-12.5,3.9
		c-2.3,2.6-3.4,7.5-3.4,14.7c0,7.2,1.1,12.1,3.4,14.7c2.3,2.6,6.5,3.9,12.5,3.9C270.4,723,275.5,722.6,279.9,721.8z"/>
	<path class="st0" d="M321.4,721.9l1.2,8c-3.3,0.9-7.3,1.4-12.2,1.4c-4.4,0-7.8-1.2-10.1-3.7c-2.3-2.6-3.4-6.2-3.4-10.9v-30.4h-9.5
		v-7.5l9.5-0.4v-15.3h10.2v15.2h16.1v8h-16.1v29c0,2.4,0.5,4.1,1.5,5.1c1.1,1,2.8,1.5,5.3,1.5H321.4z"/>
	<path class="st0" d="M367.3,677l-1.2,9.7h-3.2c-4,0-10.3,2-18.6,6v37.7H334v-52h8l1.1,7.9c7.7-6.2,15-9.3,21.8-9.3H367.3z"/>
	<path class="st0" d="M377.4,687l-1-7.6c9.4-1.6,17.8-2.4,25.2-2.4c6.3,0,11,1.3,14,3.8c3,2.6,4.5,7,4.5,13.3v36.2h-8.1l-1.2-8.2
		c-6,6.1-12.9,9.2-20.8,9.2c-4.8,0-8.7-1.3-11.6-3.8c-2.8-2.6-4.3-6.2-4.3-10.9v-5.4c0-4.1,1.3-7.3,3.8-9.6
		c2.6-2.3,6.2-3.4,10.9-3.4h20.9v-4c-0.1-3.2-0.8-5.4-2.2-6.6c-1.4-1.2-4.1-1.8-8.1-1.8C395.6,685.7,388.2,686.1,377.4,687z
		 M384.7,712.5v2.8c0,2.6,0.6,4.4,1.8,5.5c1.2,1.1,3.1,1.7,5.8,1.7c6.2,0,12-2.4,17.6-7.2v-9.4h-19c-2.3,0.1-3.9,0.7-4.8,1.8
		C385.2,708.8,384.7,710.4,384.7,712.5z"/>
	<path class="st0" d="M459.1,709.9l-14.5-3.6c-4.3-1.1-7.4-2.8-9.2-5c-1.8-2.3-2.7-5.5-2.7-9.8c0-5.8,1.5-9.6,4.6-11.6
		c3.1-2,8.5-2.9,16-2.9c8.3,0.1,15.7,0.7,22.2,1.8l-0.9,7.5c-10.9-0.4-17.4-0.5-19.7-0.5c-5,0-8.3,0.3-9.9,1
		c-1.5,0.6-2.2,2.2-2.2,4.8c0,1.2,0.1,2.2,0.3,3c0.2,0.7,0.7,1.3,1.6,1.8c0.9,0.5,1.6,0.9,2.1,1.1c0.5,0.1,1.6,0.5,3.3,1l14.7,3.6
		c4.4,1.1,7.5,2.8,9.4,4.9c1.8,2.1,2.8,5.3,2.8,9.7c0,6.1-1.7,10.2-5.1,12.1c-3.3,1.9-9.2,2.9-17.5,2.9c-7.2,0-14.1-0.5-20.7-1.5
		l0.7-7.7c4,0.4,9.9,0.5,17.8,0.5c5.8,0,9.7-0.4,11.7-1.2c2-0.9,3-2.6,3-5.2c0-1.1-0.1-2.1-0.4-2.8c-0.3-0.8-0.9-1.4-1.8-1.9
		c-0.9-0.5-1.7-0.8-2.2-1C462,710.6,460.9,710.3,459.1,709.9z"/>
	<path class="st0" d="M521.6,709.3h-23.3c0.5,5.4,1.9,9,4.2,10.9c2.3,1.8,6.1,2.8,11.4,2.8c4.6,0,10.7-0.4,18.2-1.3l1,6.8
		c-4.7,2.1-11.5,3.1-20.6,3.1c-9.1,0-15.5-2.1-19.4-6.2c-3.8-4.1-5.6-11.2-5.6-21.2c0-10.1,1.8-17.1,5.5-21.2
		c3.8-4,9.9-6.1,18.5-6.1c8,0,13.7,1.5,17.4,4.4c3.6,2.9,5.4,7.3,5.4,13.1C534.3,704.4,530.1,709.3,521.6,709.3z M498.2,701.3h20.7
		c3.4,0,5.1-2.3,5.1-6.9c-0.1-3.2-1-5.4-2.8-6.7c-1.7-1.3-4.8-2-9.2-2c-5.1,0-8.7,1.1-10.6,3.3C499.4,691.1,498.3,695.2,498.2,701.3
		z"/>
	<path class="st0" d="M579,709.3h-23.3c0.5,5.4,1.9,9,4.2,10.9c2.3,1.8,6.1,2.8,11.4,2.8c4.6,0,10.7-0.4,18.2-1.3l1,6.8
		c-4.7,2.1-11.5,3.1-20.6,3.1c-9.1,0-15.5-2.1-19.4-6.2c-3.8-4.1-5.6-11.2-5.6-21.2c0-10.1,1.8-17.1,5.5-21.2
		c3.8-4,9.9-6.1,18.5-6.1c8,0,13.7,1.5,17.4,4.4c3.6,2.9,5.4,7.3,5.4,13.1C591.7,704.4,587.5,709.3,579,709.3z M555.6,701.3h20.7
		c3.4,0,5.1-2.3,5.1-6.9c-0.1-3.2-1-5.4-2.8-6.7c-1.7-1.3-4.8-2-9.2-2c-5.1,0-8.7,1.1-10.6,3.3C556.8,691.1,555.7,695.2,555.6,701.3
		z"/>
	<path class="st0" d="M641.9,730.3l-0.9-7.1c-6.7,5.6-13.5,8.4-20.4,8.4c-6.4,0-11-2.3-14-6.8c-2.8-4.6-4.3-11.5-4.3-20.7
		c0-9.9,1.6-16.9,4.8-21c3.2-4.1,8.2-6.2,15-6.2c6.5,0,12.5,1.6,17.9,4.7c-0.3-3.1-0.4-6.5-0.4-10.2v-15.7h10.3v74.5H641.9z
		 M639.6,716.1v-27.7c-6.5-1.7-11.4-2.6-14.9-2.6c-4.4,0-7.5,1.2-9.2,3.7c-1.7,2.4-2.6,7.2-2.6,14.4c0,7.2,0.8,12.1,2.4,14.7
		c1.7,2.6,4.6,3.9,8.6,3.9c2.6,0,4.9-0.5,6.9-1.4C633,720.3,635.9,718.6,639.6,716.1z"/>
	<path class="st0" d="M734.2,660.6h-29.3c-2.5,0-4.5,0.8-6.1,2.3c-1.5,1.5-2.2,3.5-2.2,6v21h33.3v3.6h-33.3v36.8h-4.4v-62.1
		c0-3.4,1.1-6.1,3.2-8.2c2.2-2.1,5-3.2,8.5-3.2c13.7,0,23.9,0.2,30.6,0.5L734.2,660.6z"/>
	<path class="st0" d="M787.4,679v51.3h-3.3l-0.4-8.8c-8.2,6.7-16,10.1-23.4,10.1c-9.2,0-13.8-4.7-13.8-14.1V679h4.3v37.7
		c-0.1,3.8,0.8,6.6,2.6,8.4c1.8,1.8,4.5,2.7,8.2,2.7c3.3,0,6.5-0.7,9.6-2.2c3.2-1.5,7.2-3.9,12.1-7.3V679H787.4z"/>
	<path class="st0" d="M810.2,679l0.3,9.1c8.9-6.9,17-10.3,24.5-10.3c9.2,0,13.8,4.7,13.8,14.1v38.6h-4.3v-37.7
		c0-3.8-0.9-6.6-2.6-8.4c-1.7-1.8-4.4-2.7-8-2.7c-3.5,0-6.9,0.8-10.3,2.3c-3.3,1.5-7.6,4-12.8,7.5v39h-4.2V679H810.2z"/>
	<path class="st0" d="M908.5,655.8v74.5h-3.2l-0.5-8.5c-7.5,6.5-14.5,9.8-21.1,9.8c-6.6,0-11.3-2.1-14.2-6.3
		c-2.8-4.2-4.3-11.1-4.3-20.7c0-9.7,1.5-16.7,4.4-20.8c2.9-4.1,7.7-6.2,14.5-6.2c6.3,0,13.2,1.7,20.6,5.2c-0.2-1.8-0.3-5.1-0.3-10
		v-17.1H908.5z M904.4,718.4v-32.3c-8.1-3.1-14.7-4.6-19.7-4.6c-5.5,0-9.3,1.7-11.6,5.1c-2.3,3.4-3.4,9.4-3.4,17.9
		c0,8.5,1.1,14.5,3.4,18c2.3,3.5,6.1,5.2,11.5,5.2c3.1,0,6-0.7,8.9-2.1C896.5,724.2,900.1,721.8,904.4,718.4z"/>
</g>
<g id="shapes">
	<g id="full_x5F_shape" class="st1">
		<path id="c_x5F_no_x5F_cut" class="st2" d="M390.4,599.9c10.2,0,18.5-8.7,18.5-19.4c0-6-2.6-11.3-6.6-14.8
			c-4.3-3.8-8.7-8.4-8.7-14c0-4.1,2.6-7.6,5.1-11l0,0l0,0c0.5-0.7,1-1.4,1.5-2.1c1.5-2.1,2.3-4.7,2.3-7.5c0-7-5.4-12.7-12.1-12.7
			c-0.4,0-0.7,0-1.1,0.1c-2.1,0.2-4.3-0.1-5.7-1.6l-2.4-2.4c-3.3-3.3-2.7-8.7,1.8-9.7c2.4-0.6,5-0.9,7.5-1.2c1-0.1,2.1-0.3,3.1-0.4
			c3.8-0.6,7.5-2.3,10.5-5.3c7.2-7.3,7.3-19,0.1-26.2c-0.8-0.8-1.7-1.6-2.6-2.2c-4.4-3-8.8-7.3-8.8-12.6v-2.9c0-7.4,6.5-13,12.8-9
			c2.8,1.8,5.6,3.9,8.2,6h0c1.1,0.9,2.3,1.8,3.4,2.6c4.2,3.2,9.5,5.1,15.2,5.1c13.9,0,25.2-11.3,25.2-25.2c0-0.9,0-1.8-0.1-2.7
			c-0.4-4,0.3-8.3,3.1-11.2l6.2-6.2c5.5-5.5,14.5-4.7,16.6,2.8c1.6,5.8,2.3,12,3.1,18.1c0.2,2,0.5,3.9,0.7,5.8
			c1,7.6,4.4,14.9,10.2,20.7c14.1,14.2,36.9,14.2,50.9,0c4.2-4.3,7.2-9.3,8.9-14.7c1.7-5.3,6.1-9.8,11.6-9.8h9.9
			c3.4,0,6.1,2.8,6.1,6.1c0,14.8-10.4,27.2-20,38.6c-0.6,0.7-1.2,1.5-1.8,2.2c-6.6,7.9-10.5,18.1-10.5,29.2c0,24.9,19.7,45,43.9,45
			c24.3,0,43.9-20.1,43.9-45c0-11.2-4-21.4-10.5-29.2c-0.6-0.7-1.2-1.5-1.8-2.2c-9.6-11.4-20-23.8-20-38.6v-6.3
			c0-18.1,13.8-32.8,28.2-43.6c16.5-12.5,27.3-32.6,27.3-55.3c0-37.9-30-68.7-67-68.7c-37,0-67,30.7-67,68.7
			c0,22.7,10.7,42.8,27.3,55.3c9.2,6.9,18.1,15.4,23.4,25.3c3.6,6.8-2.3,13.8-10.1,13.8h-1.9c-5.3,0-9.6-4.1-11.4-9.1
			c-1.7-4.8-4.5-9.2-8.3-13.1c-5.8-5.8-13-9.3-20.5-10.3c-1.9-0.3-3.8-0.5-5.7-0.7c-12.3-1.5-25.2-3.1-33.7-11.7
			c-11.3-11.4-11.7-29.6-9.9-45.6c1.7-16.1-3.5-32.8-15.8-45.1c-21.5-21.6-56.2-21.6-77.7,0c-21.5,21.6-21.5,56.7,0,78.3
			c12.2,12.3,28.8,17.6,44.8,15.9c11.1-1.2,23.1-1.4,33.2,2.4c6.8,2.5,7,11.1,1.9,16.2l-2,2c-4.6,4.7-12.6,3.6-18.4,0.5
			c-3.6-1.9-7.6-3-12-3c-5.7,0-10.9,1.9-15.2,5.1c-1.1,0.8-2.2,1.7-3.4,2.6c-6.8,5.3-13.9,10.9-22.3,10.9
			c-11.2,0-20.3-8.8-27.4-17.6c-7.1-8.7-17.8-14.2-29.9-14.2c-21.2,0-38.5,17.2-38.5,38.4c0,21.2,17.2,38.4,38.5,38.4
			c12.1,0,22.8-5.5,29.9-14.2c3.2-3.9,6.7-7.8,10.7-11c6.2-4.9,13.4,0.8,13.4,8.6v2.5c0,5-3.9,9-7.9,12c-0.7,0.5-1.4,1.1-2.1,1.8
			c-3,3-4.7,6.7-5.3,10.5c-0.1,1-0.3,2.1-0.4,3.1c-0.8,6.3-1.6,12.9-6,17.3c-5.8,5.9-15.1,6-23.3,5.2c-8.1-0.8-16.6,1.9-22.8,8.2
			c-11,11.1-11.1,29-0.2,40c10.9,11,28.7,10.9,39.7-0.2c6.3-6.3,9-14.8,8.2-23c-0.4-4.3-0.6-8.8,0.2-13c0.8-4.7,6.4-5.3,9.8-1.9
			l0.3,0.3c2,2,1.9,5.3,0.8,7.9c-0.6,1.5-1,3.2-1,5c0,2.8,0.9,5.4,2.3,7.5c0.5,0.7,1,1.4,1.5,2.1c2.5,3.4,5.1,6.9,5.1,11
			c0,5.7-4.4,10.3-8.7,14c-4,3.6-6.6,8.9-6.6,14.8C371.9,591.2,380.2,599.9,390.4,599.9z"/>
		<path id="c_x5F_cut" class="st2" d="M390.4,599.9c10.2,0,18.5-8.7,18.5-19.4c0-6-2.6-11.3-6.6-14.8c-4.3-3.8-8.7-8.4-8.7-14
			c0-4.1,2.6-7.6,5.1-11l0,0l0,0c0.5-0.7,1-1.4,1.5-2.1c1.5-2.1,2.3-4.7,2.3-7.5c0-7-5.4-12.7-12.1-12.7c-0.4,0-0.7,0-1.1,0.1
			c-2.1,0.2-4.3-0.1-5.7-1.6l-2.4-2.4c-3.3-3.3-2.7-8.7,1.8-9.7c2.4-0.6,5-0.9,7.5-1.2c1-0.1,2.1-0.3,3.1-0.4
			c3.8-0.6,7.5-2.3,10.5-5.3c7.2-7.3,7.3-19,0.1-26.2c-0.8-0.8-1.7-1.6-2.6-2.2c-4.4-3-8.8-7.3-8.8-12.6v-2.9c0-7.4,6.5-13,12.8-9
			c2.8,1.8,5.6,3.9,8.2,6h0c1.1,0.9,2.3,1.8,3.4,2.6c4.2,3.2,9.5,5.1,15.2,5.1c13.9,0,25.2-11.3,25.2-25.2c0-0.9,0-1.8-0.1-2.7
			c-0.4-4,0.3-8.3,3.1-11.2l6.2-6.2c5.5-5.5,14.5-4.7,16.6,2.8c1.6,5.8,2.3,12,3.1,18.1c0.2,2,0.5,3.9,0.7,5.8
			c1,7.6,4.4,14.9,10.2,20.7c14.1,14.2,36.9,14.2,50.9,0c4.2-4.3,7.2-9.3,8.9-14.7c1.7-5.3,6.1-9.8,11.6-9.8h9.9
			c3.4,0,6.1,2.8,6.1,6.1c0,14.8-10.4,27.2-20,38.6c-0.6,0.7-1.2,1.5-1.8,2.2c-6.6,7.9-10.5,18.1-10.5,29.2c0,24.9,19.7,45,43.9,45
			c24.3,0,43.9-20.1,43.9-45c0-11.2-4-21.4-10.5-29.2c-0.6-0.7-1.2-1.5-1.8-2.2c-9.6-11.4-20-23.8-20-38.6v-6.3
			c0-18.1,13.8-32.8,28.2-43.6c16.5-12.5,27.3-32.6,27.3-55.3c0-37.9-30-68.7-67-68.7c-37,0-67,30.7-67,68.7
			c0,22.7,10.7,42.8,27.3,55.3c9.2,6.9,18.1,15.4,23.4,25.3c3.6,6.8-2.3,13.8-10.1,13.8h-1.9c-5.3,0-9.6-4.1-11.4-9.1
			c-1.7-4.8-4.5-9.2-8.3-13.1c-5.8-5.8-13-9.3-20.5-10.3c-1.9-0.3-3.8-0.5-5.7-0.7c-12.3-1.5-25.2-3.1-33.7-11.7
			c-11.3-11.4-11.7-29.6-9.9-45.6c1.7-16.1-3.5-32.8-15.8-45.1c-21.5-21.6-56.2-21.6-77.7,0c-21.5,21.6-21.5,56.7,0,78.3
			c12.2,12.3,28.8,17.6,44.8,15.9c11.1-1.2,23.1-1.4,33.2,2.4c6.8,2.5,7,11.1,1.9,16.2l-2,2c-4.6,4.7-12.6,3.6-18.4,0.5
			c-3.6-1.9-7.6-3-12-3c-5.7,0-10.9,1.9-15.2,5.1c-1.1,0.8-2.2,1.7-3.4,2.6c-6.8,5.3-13.9,10.9-22.3,10.9
			c-11.2,0-20.3-8.8-27.4-17.6c-7.1-8.7-17.8-14.2-29.9-14.2c-21.2,0-38.5,17.2-38.5,38.4c0,21.2,17.2,38.4,38.5,38.4
			c12.1,0,22.8-5.5,29.9-14.2c3.2-3.9,6.7-7.8,10.7-11c6.2-4.9,13.4,0.8,13.4,8.6v2.5c0,5-3.9,9-7.9,12c-0.7,0.5-1.4,1.1-2.1,1.8
			c-3,3-4.7,6.7-5.3,10.5c-0.1,1-0.3,2.1-0.4,3.1c-0.8,6.3-1.6,12.9-6,17.3c-5.8,5.9-15.1,6-23.3,5.2c-8.1-0.8-16.6,1.9-22.8,8.2
			c-11,11.1-11.1,29-0.2,40c10.9,11,28.7,10.9,39.7-0.2c6.3-6.3,9-14.8,8.2-23c-0.4-4.3-0.6-8.8,0.2-13c0.8-4.7,6.4-5.3,9.8-1.9
			l0.3,0.3c2,2,1.9,5.3,0.8,7.9c-0.6,1.5-1,3.2-1,5c0,2.8,0.9,5.4,2.3,7.5c0.5,0.7,1,1.4,1.5,2.1c2.5,3.4,5.1,6.9,5.1,11
			c0,5.7-4.4,10.3-8.7,14c-4,3.6-6.6,8.9-6.6,14.8C371.9,591.2,380.2,599.9,390.4,599.9z M658.1,335.4c0,34.2-27.7,61.9-61.9,61.9
			c-34.2,0-61.9-27.7-61.9-61.9c0-34.2,27.7-61.9,61.9-61.9C630.4,273.5,658.1,301.2,658.1,335.4z M423.1,384.5
			c27.5,0,50-22.3,50.2-49.8c0.2-27.5-21.9-49.8-49.4-49.8c-27.5,0-50,22.3-50.2,49.8C373.5,362.2,395.6,384.5,423.1,384.5z
			 M634.9,513.3c0,21.4-17.3,38.7-38.7,38.7s-38.7-17.3-38.7-38.7c0-21.4,17.3-38.7,38.7-38.7S634.9,491.9,634.9,513.3z
			 M522.6,466.1c17.1,0,31-13.9,31.2-30.9c0.1-17.1-13.6-30.9-30.7-30.9c-17.1,0-31,13.9-31.2,30.9
			C491.8,452.2,505.5,466.1,522.6,466.1z M452.4,433.2c0,11-8.9,19.9-19.9,19.9c-11,0-19.9-8.9-19.9-19.9s8.9-19.9,19.9-19.9
			C443.4,413.3,452.4,422.2,452.4,433.2z M391.2,497.7c7.3,0,13.2-5.9,13.2-13.2c0-7.3-5.9-13.2-13.2-13.2
			c-7.3,0-13.2,5.9-13.2,13.2C378,491.7,383.9,497.7,391.2,497.7z M397.4,530.5c0,3.9-3.1,7-7,7s-7-3.1-7-7c0-3.9,3.1-7,7-7
			S397.4,526.6,397.4,530.5z M390.4,594.8c7.4,0,13.3-6,13.3-13.3c0-7.4-6-13.3-13.3-13.3c-7.4,0-13.3,6-13.3,13.3
			C377.1,588.8,383,594.8,390.4,594.8z M363.2,535.9c0,12.7-10.3,23-23,23c-12.7,0-23-10.3-23-23c0-12.7,10.3-23,23-23
			C352.9,512.9,363.2,523.2,363.2,535.9z M334,466.6c18.4,0,33.3-14.9,33.3-33.3c0-18.4-14.9-33.3-33.3-33.3s-33.3,14.9-33.3,33.3
			C300.7,451.7,315.6,466.6,334,466.6z"/>
	</g>
	<g id="shape_x5F_1">
		<path id="s_x5F_1" class="st3" d="M390.4,599.9c10.2,0,18.5-8.7,18.5-19.4c0-6-2.6-11.3-6.6-14.8c-4.3-3.8-8.7-8.4-8.7-14
			c0-4.1,2.6-7.6,5.1-11l0,0l0,0c0.5-0.7,1-1.4,1.5-2.1c1.5-2.1,2.3-4.7,2.3-7.5c0-7-5.4-12.7-12.1-12.7c-0.4,0-0.7,0-1.1,0.1
			c-2.1,0.2-8.3,2.4-10.1,7.7c-0.6,1.5-1,3.2-1,5c0,2.8,0.9,5.4,2.3,7.5c0.5,0.7,1,1.4,1.5,2.1c2.5,3.4,5.1,6.9,5.1,11
			c0,5.7-4.4,10.3-8.7,14c-4,3.6-6.6,8.9-6.6,14.8C371.9,591.2,380.2,599.9,390.4,599.9z"/>
	</g>
	<g id="shape_x5F_2">
		<path id="s_x5F_2" class="st3" d="M398.7,540.6L398.7,540.6L398.7,540.6c0.5-0.7,1-1.4,1.5-2.1c1.5-2.1,2.3-4.7,2.3-7.5
			c0-7-5.4-12.7-12.1-12.7c-0.4,0-0.7,0-1.1,0.1c-2.1,0.2-4.3-0.1-5.7-1.6l-2.4-2.4c-3.3-3.3-2.7-8.7,1.8-9.7c2.4-0.6,5-0.9,7.5-1.2
			c1-0.1,2.1-0.3,3.1-0.4c3.8-0.6,7.5-2.3,10.5-5.3c7.2-7.3,7.3-19,0.1-26.2c-0.8-0.8-1.7-1.6-2.6-2.2c-4.4-3-14.1-4.7-21.3,0.5
			c-0.7,0.5-1.4,1.1-2.1,1.8c-3,3-4.7,6.7-5.3,10.5c-0.1,1-0.3,2.1-0.4,3.1c-0.8,6.3-1.6,12.9-6,17.3c-5.8,5.9-15.1,6-23.3,5.2
			c-8.1-0.8-16.6,1.9-22.8,8.2c-11,11.1-11.1,29-0.2,40c10.9,11,28.7,10.9,39.7-0.2c6.3-6.3,9-14.8,8.2-23c-0.4-4.3-0.6-8.8,0.2-13
			c0.8-4.7,6.4-5.3,9.8-1.9l0.3,0.3c2,2,1.9,5.3,0.8,7.9c-0.6,1.5-1,3.2-1,5c0,2.8,0.9,5.4,2.3,7.5c0.5,0.7,1,1.4,1.5,2.1
			C386.9,545.7,396.2,544,398.7,540.6z"/>
	</g>
	<g id="shape_x5F_3">
		<path id="s_x5F_3" class="st3" d="M390.5,503.4c1-0.1,2.1-0.3,3.1-0.4c3.8-0.6,7.5-2.3,10.5-5.3c7.2-7.3,7.3-19,0.1-26.2
			c-0.8-0.8-1.7-1.6-2.6-2.2c-4.4-3-8.8-7.3-8.8-12.6v-2.9c0-7.4,6.5-13,12.8-9c2.8,1.8,5.6,3.9,8.2,6h0c1.1,0.9,2.3,1.8,3.4,2.6
			c4.2,3.2,9.5,5.1,15.2,5.1c13.9,0,25.2-11.3,25.2-25.2c0-0.9,0-1.8-0.1-2.7c-0.4-4-4.1-16-13.1-19.5c-3.6-1.9-7.6-3-12-3
			c-5.7,0-10.9,1.9-15.2,5.1c-1.1,0.8-2.2,1.7-3.4,2.6c-6.8,5.3-13.9,10.9-22.3,10.9c-11.2,0-20.3-8.8-27.4-17.6
			c-7.1-8.7-17.8-14.2-29.9-14.2c-21.2,0-38.5,17.2-38.5,38.4c0,21.2,17.2,38.4,38.5,38.4c12.1,0,22.8-5.5,29.9-14.2
			c3.2-3.9,6.7-7.8,10.7-11c6.2-4.9,13.4,0.8,13.4,8.6v2.5c0,5-3.9,9-7.9,12c-0.7,0.5-1.4,1.1-2.1,1.8c-3,3-4.7,6.7-5.3,10.5
			c-0.1,1-0.3,2.1-0.4,3.1C372.3,496.2,381.9,503.4,390.5,503.4z"/>
	</g>
	<g id="shape_x5F_4">
		<path id="s_x5F_4" class="st3" d="M413.7,450.8L413.7,450.8c1.1,0.9,2.3,1.8,3.4,2.6c4.2,3.2,9.5,5.1,15.2,5.1
			c13.9,0,25.2-11.3,25.2-25.2c0-0.9,0-1.8-0.1-2.7c-0.4-4,0.3-8.3,3.1-11.2l6.2-6.2c5.5-5.5,14.5-4.7,16.6,2.8
			c1.6,5.8,2.3,12,3.1,18.1c0.2,2,0.5,3.9,0.7,5.8c1,7.6,4.4,14.9,10.2,20.7c14.1,14.2,36.9,14.2,50.9,0c4.2-4.3,7.2-9.3,8.9-14.7
			c3.1-7.5,1.3-18.6-0.6-23.5c-1.7-4.8-4.5-9.2-8.3-13.1c-5.8-5.8-13-9.3-20.5-10.3c-1.9-0.3-3.8-0.5-5.7-0.7
			c-12.3-1.5-25.2-3.1-33.7-11.7c-11.3-11.4-11.7-29.6-9.9-45.6c1.7-16.1-3.5-32.8-15.8-45.1c-21.5-21.6-56.2-21.6-77.7,0
			c-21.5,21.6-21.5,56.7,0,78.3c12.2,12.3,28.8,17.6,44.8,15.9c11.1-1.2,23.1-1.4,33.2,2.4c6.8,2.5,7,11.1,1.9,16.2l-2,2
			c-4.6,4.7-12.6,3.6-18.4,0.5c-3.6-1.9-7.6-3-12-3c-5.7,0-10.9,1.9-15.2,5.1c-1.1,0.8-2.2,1.7-3.4,2.6
			C403.2,428,409,447.3,413.7,450.8z"/>
	</g>
	<g id="shape_x5F_5">
		<path id="s_x5F_5" class="st3" d="M486.3,434.1c0.2,2,0.5,3.9,0.7,5.8c1,7.6,4.4,14.9,10.2,20.7c14.1,14.2,36.9,14.2,50.9,0
			c4.2-4.3,7.2-9.3,8.9-14.7c1.7-5.3,6.1-9.8,11.6-9.8h9.9c3.4,0,6.1,2.8,6.1,6.1c0,14.8-10.4,27.2-20,38.6
			c-0.6,0.7-1.2,1.5-1.8,2.2c-6.6,7.9-10.5,18.1-10.5,29.2c0,24.9,19.7,45,43.9,45c24.3,0,43.9-20.1,43.9-45
			c0-11.2-4-21.4-10.5-29.2c-0.6-0.7-1.2-1.5-1.8-2.2c-9.6-11.4-20-23.8-20-38.6v-6.3c0-18.1,13.8-32.8,28.2-43.6
			c16.5-12.5,27.3-32.6,27.3-55.3c0-37.9-30-68.7-67-68.7c-37,0-67,30.7-67,68.7c0,22.7,10.7,42.8,27.3,55.3
			c9.2,6.9,18.1,15.4,23.4,25.3c3.6,6.8-2.3,13.8-10.1,13.8h-1.9c-5.3,0-9.6-4.1-11.4-9.1c-1.7-4.8-4.5-9.2-8.3-13.1
			c-5.8-5.8-13-9.3-20.5-10.3c-1.9-0.3-3.8-0.5-5.7-0.7C503,398.5,484.7,419.1,486.3,434.1z"/>
	</g>
</g>
<g id="orange_x5F_circles">
	<g id="c_x5F_1">
		<path id="external_20_" class="st4" d="M418.9,558.8c4.3,0,7.7-3.5,7.7-7.7c0-4.3-3.5-7.7-7.7-7.7c-4.3,0-7.7,3.5-7.7,7.7
			C411.2,555.3,414.7,558.8,418.9,558.8z M418.9,563.9c7.1,0,12.9-5.8,12.9-12.9s-5.8-12.9-12.9-12.9c-7.1,0-12.9,5.8-12.9,12.9
			S411.8,563.9,418.9,563.9z"/>
		<path id="internal_10_" class="st5" d="M426.6,551.1c0,4.3-3.5,7.7-7.7,7.7c-4.3,0-7.7-3.5-7.7-7.7c0-4.3,3.5-7.7,7.7-7.7
			C423.2,543.3,426.6,546.8,426.6,551.1z"/>
	</g>
	<g id="c_x5F_2">
		<path id="external_21_" class="st4" d="M667,471.4c17.7,0,32.1-14.4,32.1-32.1c0-17.7-14.4-32.1-32.1-32.1
			c-17.7,0-32.1,14.4-32.1,32.1C634.8,457,649.2,471.4,667,471.4z M667,476.5c20.6,0,37.3-16.7,37.3-37.3
			c0-20.6-16.7-37.3-37.3-37.3c-20.6,0-37.3,16.7-37.3,37.3C629.7,459.8,646.4,476.5,667,476.5z"/>
		<path id="internal_21_" class="st5" d="M699.1,439.2c0,17.7-14.4,32.1-32.1,32.1c-17.7,0-32.1-14.4-32.1-32.1
			c0-17.7,14.4-32.1,32.1-32.1C684.7,407.1,699.1,421.5,699.1,439.2z"/>
	</g>
</g>
<g id="blue_x5F_circles">
	<g id="c_x5F_1_1_">
		<path id="external_19_" class="st6" d="M390.4,563.1c-10.1,0-18.3,8.2-18.3,18.3s8.2,18.3,18.3,18.3s18.3-8.2,18.3-18.3
			S400.5,563.1,390.4,563.1z M390.4,594.8c-7.4,0-13.3-6-13.3-13.3s6-13.3,13.3-13.3s13.3,6,13.3,13.3S397.8,594.8,390.4,594.8z"/>
		<circle id="internal_20_" class="st7" cx="390.4" cy="581.4" r="13.3"/>
	</g>
	<g id="c_x5F_2_1_">
		<path id="external_10_" class="st6" d="M390.4,518.5c-6.7,0-12.1,5.4-12.1,12.1s5.4,12.1,12.1,12.1s12.1-5.4,12.1-12.1
			S397.1,518.5,390.4,518.5z M390.4,537.5c-3.9,0-7-3.1-7-7s3.1-7,7-7c3.9,0,7,3.1,7,7S394.3,537.5,390.4,537.5z"/>
		<circle id="internal_19_" class="st7" cx="390.4" cy="530.5" r="7"/>
	</g>
	<g id="c_x5F_3_1_">
		<path id="external_11_" class="st6" d="M340.2,507.9c-15.5,0-28,12.5-28,28c0,15.5,12.5,28,28,28c15.5,0,28-12.5,28-28
			C368.2,520.4,355.7,507.9,340.2,507.9z M340.2,558.8c-12.7,0-23-10.3-23-23c0-12.7,10.3-23,23-23c12.7,0,23,10.3,23,23
			C363.2,548.5,352.9,558.8,340.2,558.8z"/>
		<circle id="internal_18_" class="st7" cx="340.2" cy="535.9" r="23"/>
	</g>
	<g id="c_x5F_4_1_">
		<path id="external_12_" class="st6" d="M391.2,466.1c-10.1,0-18.3,8.2-18.3,18.3c0,10.1,8.2,18.3,18.3,18.3
			c10.1,0,18.3-8.2,18.3-18.3C409.5,474.3,401.3,466.1,391.2,466.1z M391.2,497.8c-7.4,0-13.3-6-13.3-13.3c0-7.4,6-13.3,13.3-13.3
			s13.3,6,13.3,13.3C404.5,491.8,398.5,497.8,391.2,497.8z"/>
		<circle id="internal_17_" class="st7" cx="391.2" cy="484.5" r="13.3"/>
	</g>
	<g id="c_x5F_5_1_">
		<path id="external_13_" class="st6" d="M334,395c-21.2,0-38.3,17.2-38.3,38.3c0,21.2,17.2,38.3,38.3,38.3
			c21.2,0,38.3-17.2,38.3-38.3C372.3,412.1,355.2,395,334,395z M334,466.6c-18.4,0-33.3-14.9-33.3-33.3c0-18.4,14.9-33.3,33.3-33.3
			c18.4,0,33.3,14.9,33.3,33.3C367.3,451.7,352.4,466.6,334,466.6z"/>
		<circle id="internal_16_" class="st7" cx="334" cy="433.3" r="33.3"/>
	</g>
	<g id="c_x5F_6_1_">
		<path id="external_14_" class="st6" d="M432.4,408.1c-13.8,0-25,11.2-25,25c0,13.8,11.2,25,25,25c13.8,0,25-11.2,25-25
			C457.5,419.4,446.3,408.1,432.4,408.1z M432.4,453.1c-11,0-19.9-8.9-19.9-19.9c0-11,8.9-19.9,19.9-19.9c11,0,19.9,8.9,19.9,19.9
			C452.4,444.2,443.4,453.1,432.4,453.1z"/>
		<circle id="internal_15_" class="st7" cx="432.4" cy="433.2" r="19.9"/>
	</g>
	<g id="c_x5F_7_1_">
		<path id="external_15_" class="st6" d="M522.9,399.1c-19.9,0-36.1,16.1-36.1,36.1c0,19.9,16.1,36.1,36.1,36.1
			c19.9,0,36.1-16.1,36.1-36.1C558.9,415.2,542.8,399.1,522.9,399.1z M522.9,466.1c-17.1,0-31-13.9-31-31c0-17.1,13.9-31,31-31
			c17.1,0,31,13.9,31,31C553.9,452.3,540,466.1,522.9,466.1z"/>
		<circle id="internal_14_" class="st7" cx="522.9" cy="435.1" r="31"/>
	</g>
	<g id="c_x5F_8_1_">
		<path id="external_16_" class="st6" d="M423.3,279.7c-30.4,0-55.1,24.7-55.1,55.1s24.7,55.1,55.1,55.1s55.1-24.7,55.1-55.1
			S453.8,279.7,423.3,279.7z M423.3,384.7c-27.6,0-49.9-22.4-49.9-49.9s22.4-49.9,49.9-49.9s49.9,22.4,49.9,49.9
			S450.9,384.7,423.3,384.7z"/>
		<circle id="internal_13_" class="st7" cx="423.3" cy="334.8" r="49.9"/>
	</g>
	<g id="c_x5F_9_1_">
		<path id="external_17_" class="st6" d="M596.2,268.8c-36.8,0-66.6,29.8-66.6,66.6c0,36.8,29.8,66.6,66.6,66.6s66.6-29.8,66.6-66.6
			C662.7,298.6,632.9,268.8,596.2,268.8z M596.2,397.2c-34.2,0-61.9-27.7-61.9-61.9c0-34.2,27.7-61.9,61.9-61.9s61.9,27.7,61.9,61.9
			C658.1,369.5,630.4,397.2,596.2,397.2z"/>
		<circle id="internal_12_" class="st7" cx="596.2" cy="335.4" r="61.9"/>
	</g>
	<g id="c_x5F_10_1_">
		<path id="external_18_" class="st6" d="M596.2,469.7c-24.1,0-43.6,19.5-43.6,43.6c0,24.1,19.5,43.6,43.6,43.6s43.6-19.5,43.6-43.6
			C639.8,489.2,620.3,469.7,596.2,469.7z M596.2,552.1c-21.4,0-38.7-17.3-38.7-38.7c0-21.4,17.3-38.7,38.7-38.7s38.7,17.3,38.7,38.7
			C634.9,534.7,617.6,552.1,596.2,552.1z"/>
		<circle id="internal_11_" class="st7" cx="596.2" cy="513.3" r="38.7"/>
	</g>
</g>
</svg>
